<?xml version="1.0" encoding="UTF-8" standalone="no"?>
<!-- Created with Inkscape (http://www.inkscape.org/) -->

<svg
   xmlns:dc="http://purl.org/dc/elements/1.1/"
   xmlns:cc="http://creativecommons.org/ns#"
   xmlns:rdf="http://www.w3.org/1999/02/22-rdf-syntax-ns#"
   xmlns:svg="http://www.w3.org/2000/svg"
   xmlns="http://www.w3.org/2000/svg"
   xmlns:xlink="http://www.w3.org/1999/xlink"
   xmlns:sodipodi="http://sodipodi.sourceforge.net/DTD/sodipodi-0.dtd"
   xmlns:inkscape="http://www.inkscape.org/namespaces/inkscape"
   id="svg2"
   version="1.1"
   inkscape:version="0.48.2 r9819"
   sodipodi:docname="abc_2013_logo_gold.svg">
  <metadata
     id="metadata8">
    <rdf:RDF>
      <cc:Work
         rdf:about="">
        <dc:format>image/svg+xml</dc:format>
        <dc:type
           rdf:resource="http://purl.org/dc/dcmitype/StillImage" />
      </cc:Work>
    </rdf:RDF>
  </metadata>
  <defs
     id="defs6">
    <linearGradient
       inkscape:collect="always"
       id="linearGradient3769">
      <stop
         style="stop-color:#ffffff;stop-opacity:1"
         offset="0"
         id="stop3771" />
      <stop
         style="stop-color:#ffffff;stop-opacity:0"
         offset="1"
         id="stop3773" />
    </linearGradient>
    <linearGradient
       inkscape:collect="always"
       id="linearGradient3759">
      <stop
         style="stop-color:#ff8000;stop-opacity:1"
         offset="0"
         id="stop3761" />
      <stop
         style="stop-color:#000000;stop-opacity:0;"
         offset="1"
         id="stop3763" />
    </linearGradient>
    <radialGradient
       inkscape:collect="always"
       xlink:href="#linearGradient3759"
       id="radialGradient3765"
       cx="732.85596"
       cy="129.42476"
       fx="732.85596"
       fy="129.42476"
       r="119.13212"
       gradientTransform="matrix(2.0609416,0.04264299,-0.03790346,1.7060678,-788.05137,-122.96566)"
       gradientUnits="userSpaceOnUse" />
    <radialGradient
       inkscape:collect="always"
       xlink:href="#linearGradient3769"
       id="radialGradient3775"
       cx="675.65594"
       cy="3.6779966"
       fx="675.65594"
       fy="3.6779966"
       r="134.22951"
       gradientTransform="matrix(1.4600427,-0.11357966,0.08754319,1.1253494,-358.79976,67.747966)"
       gradientUnits="userSpaceOnUse" />
  </defs>
  <sodipodi:namedview
     pagecolor="#ffffff"
     bordercolor="#666666"
     borderopacity="1"
     objecttolerance="10"
     gridtolerance="10"
     guidetolerance="10"
     inkscape:pageopacity="0"
     inkscape:pageshadow="2"
     inkscape:window-width="1024"
     inkscape:window-height="706"
     id="namedview4"
     showgrid="false"
     inkscape:zoom="0.70710678"
     inkscape:cx="79.70419"
     inkscape:cy="280.30179"
     inkscape:window-x="-8"
     inkscape:window-y="-8"
     inkscape:window-maximized="1"
     inkscape:current-layer="svg2" />
  <path
     sodipodi:type="arc"
     style="fill:#000000;fill-rule:evenodd;stroke:#000000;stroke-width:1px;stroke-linecap:butt;stroke-linejoin:miter;stroke-opacity:1"
     id="path2987"
     sodipodi:cx="846.27728"
     sodipodi:cy="208.47954"
     sodipodi:rx="111.17168"
     sodipodi:ry="128.46506"
     d="m 957.44896,208.47954 a 111.17168,128.46506 0 1 1 -222.34335,0 111.17168,128.46506 0 1 1 222.34335,0 z"
     transform="matrix(1.8509381,0,0,1.6266118,-1359.6732,-126.53013)" />
  <path
     sodipodi:type="arc"
     style="fill:url(#radialGradient3765);fill-opacity:1;fill-rule:evenodd;stroke:none"
     id="path2989"
     sodipodi:cx="811.41602"
     sodipodi:cy="204.08757"
     sodipodi:rx="119.13212"
     sodipodi:ry="114.74015"
     d="m 930.54813,204.08757 a 119.13212,114.74015 0 1 1 -238.26423,0 119.13212,114.74015 0 1 1 238.26423,0 z"
     transform="matrix(-1.7208015,-0.2102034,0.217161,-1.7885021,1558.5029,751.18757)" />
  <path
     sodipodi:type="arc"
     style="fill:url(#radialGradient3775);fill-opacity:1;stroke:none"
     id="path3767"
     sodipodi:cx="752.94794"
     sodipodi:cy="141.77652"
     sodipodi:rx="134.22951"
     sodipodi:ry="123.79858"
     d="m 887.17744,141.77652 a 134.22951,123.79858 0 1 1 -268.45901,0 134.22951,123.79858 0 1 1 268.45901,0 z"
     transform="matrix(1.5109934,0,0,1.6972241,-935.12219,-27.727908)" />
  <path
     inkscape:connector-curvature="0"
     id="path5971"
     style="fill:#ffffff;fill-opacity:1;fill-rule:evenodd"
     d="m 207.82615,178.15075 c -17.53846,0 -31.76374,14.87816 -31.76374,33.22963 0,18.35147 14.22531,33.22964 31.76374,33.22964 17.53842,0 31.76372,-14.88048 31.76372,-33.22964 0,-18.34916 -14.22538,-33.22963 -31.76372,-33.22963 z m -135.153997,0 c -17.53842,0 -31.7524,14.87816 -31.7524,33.22963 0,18.35147 14.21398,33.22964 31.7524,33.22964 17.53845,0 31.763727,-14.88048 31.763727,-33.22964 0,-18.34916 -14.225277,-33.22963 -31.763727,-33.22963 z M 343.17207,146.12219 c 30.16297,0 55.43027,23.04475 61.34738,52.76469 l -31.4587,-0.11774 c -4.82516,-11.92361 -16.15543,-19.97076 -29.31257,-19.97076 -17.5362,0 -31.76372,14.86639 -31.76372,33.21786 0,18.35379 14.2253,33.22964 31.76372,33.22964 13.15714,0 24.62514,-7.96956 29.44813,-19.9001 l 31.45873,-0.14131 c -5.83728,29.83329 -31.24457,51.85803 -61.48297,51.85803 -34.55524,0 -62.56728,-29.31309 -62.56728,-65.47016 0,-36.15707 28.01204,-65.47015 62.56728,-65.47015 z M 72.288103,145.8278 c 34.557497,0 64.623117,29.07528 64.623117,65.23465 l 0.034,66.27086 -31.43616,0.23551 0,-17.91012 c -8.702657,10.31377 -18.616627,17.19035 -33.220887,17.10941 -34.55528,-0.19896 -62.5786103,-29.31308 -62.5786103,-65.47015 0,-36.15708 28.0233303,-65.47016 62.5786103,-65.47016 z m 71.694317,-42.62624 31.37962,0 0.0452,61.56078 c 8.70486,-10.31374 18.61664,-17.19264 33.22089,-17.10938 34.55306,0.20123 62.56728,29.32486 62.56728,65.48193 0,36.15706 -28.01647,65.45835 -62.56728,65.45835 -34.55524,0 -64.61184,-29.07293 -64.61184,-65.23462 l -0.034,-110.15706 z" />
</svg>
