<?xml version="1.0" encoding="utf-8"?>
<!-- Generator: Adobe Illustrator 12.0.0, SVG Export Plug-In . SVG Version: 6.00 Build 51448)  -->
<!DOCTYPE svg PUBLIC "-//W3C//DTD SVG 1.1 Basic//EN" "http://www.w3.org/Graphics/SVG/1.1/DTD/svg11-basic.dtd" [
	<!ENTITY ns_svg "http://www.w3.org/2000/svg">
	<!ENTITY ns_xlink "http://www.w3.org/1999/xlink">
]>
<svg  version="1.1" baseProfile="basic" id="Layer_1" xmlns="&ns_svg;" xmlns:xlink="&ns_xlink;" width="564.502" height="108"
	 viewBox="0 0 564.502 108" overflow="visible" enable-background="new 0 0 564.502 108" xml:space="preserve">
<g>
	<g>
		<path fill="#FF2B06" d="M27.898,25.514H0V0h86.435v25.514H58.548v74.032h-30.65V25.514z"/>
		<path fill="#FF2B06" d="M91.199,0h83.906v25.514h-53.236v12.405h53.236v23.709h-53.236v12.405h53.25v25.513h-83.92V0z"/>
		<path fill="#FF2B06" d="M180.267,0h50.331c33.176,0,44.901,24.539,44.901,49.627c0,30.542-16.172,49.919-50.89,49.919h-44.341V0z
			 M210.936,74.033h11.995c19.105,0,21.899-15.48,21.899-24.832c0-6.262-1.962-23.687-24.132-23.687h-9.761V74.033z"/>
	</g>
</g>
<g>
	<path d="M294.761,1.894h2.4v38.958h-2.4V1.894z"/>
	<path d="M326.462,34.85h-0.109c-2.292,4.419-5.729,6.656-10.748,6.656c-8.457,0-12.113-6.875-12.113-14.623
		c0-8.293,4.038-14.731,12.494-14.731c4.584,0,8.895,2.51,10.367,6.929h0.109V1.894h2.074v38.958h-2.074V34.85z M326.407,26.883
		c0-6.547-3.219-12.931-10.422-12.931c-7.419,0-10.421,6.166-10.421,12.931c0,6.603,3.273,12.823,10.477,12.823
		C323.134,39.706,326.407,33.322,326.407,26.883z"/>
	<path d="M337.103,27.102c-0.11,6.602,3.383,12.604,10.312,12.604c5.293,0,9.059-3.165,10.039-8.348h2.074
		c-1.091,6.547-5.456,10.148-12.113,10.148c-8.184,0-12.494-6.438-12.386-14.186c-0.108-7.694,3.928-15.168,12.386-15.168
		c8.784,0,12.713,6.929,12.331,14.95H337.103z M357.672,25.301c-0.109-5.893-3.819-11.349-10.258-11.349
		c-6.22,0-9.876,5.784-10.312,11.349H357.672z"/>
	<path d="M386.427,35.668c0,1.637,0,3.383,1.854,3.383c0.382,0,0.874-0.055,1.528-0.164v1.746c-0.601,0.109-1.146,0.218-1.692,0.218
		c-3.272,0-3.765-1.8-3.765-4.092v-1.473h-0.108c-1.31,3.329-5.074,6.22-10.421,6.22c-5.293,0-9.386-2.019-9.386-7.912
		c0-6.547,5.675-7.912,10.313-8.293c9.274-0.655,9.657-1.255,9.657-5.838c0-1.255-1.419-5.511-7.803-5.511
		c-5.02,0-8.349,2.619-8.621,7.475h-2.073c0.272-6.166,4.092-9.275,10.694-9.275c4.91,0,9.821,1.528,9.821,7.312V35.668z
		 M384.353,24.919c-1.637,1.855-6.111,1.637-10.147,2.183c-4.911,0.545-7.693,2.291-7.693,6.493c0,3.383,2.455,6.111,7.366,6.111
		c9.438,0,10.475-8.075,10.475-9.549V24.919z"/>
	<path d="M395.156,31.521c0.327,5.183,4.201,8.185,9.276,8.185c3.655,0,8.893-1.091,8.893-5.948c0-4.747-4.801-5.456-9.603-6.438
		c-4.855-0.982-9.657-2.237-9.657-7.966c0-5.565,5.401-7.202,10.148-7.202c5.948,0,10.367,2.564,10.367,8.948h-2.073
		c-0.055-5.074-3.601-7.147-8.294-7.147c-3.818,0-8.075,1.418-8.075,5.402c0,4.474,4.801,5.184,9.33,6.166
		c5.565,1.037,9.931,2.346,9.931,8.239c0,6.057-6.057,7.748-10.967,7.748c-6.384,0-11.185-3.438-11.35-9.985H395.156z"/>
	<path d="M444.862,38.451h0.109l7.639-25.645h2.783l7.693,25.645h0.109l7.856-25.645h2.291l-9.002,28.045h-2.565l-7.693-25.426
		h-0.108l-7.748,25.426h-2.619l-8.894-28.045h2.237L444.862,38.451z"/>
	<path d="M489.004,12.151c8.239,0,12.876,6.711,12.876,14.677s-4.637,14.677-12.876,14.677s-12.876-6.711-12.876-14.677
		S480.765,12.151,489.004,12.151z M489.004,39.706c7.038,0,10.803-6.166,10.803-12.877s-3.765-12.877-10.803-12.877
		c-7.039,0-10.804,6.166-10.804,12.877S481.965,39.706,489.004,39.706z"/>
	<path d="M509.956,19.026h0.163c1.092-3.656,5.675-6.603,10.749-6.384v2.074c-2.183-0.273-5.237,0.273-7.748,2.728
		c-2.073,2.128-2.946,3.874-3.164,8.075v15.332h-2.074V12.806h2.074V19.026z"/>
	<path d="M536.392,14.606h-6.111v19.588c0,4.529,2.127,4.965,6.057,4.856v1.8c-4.256,0.273-8.349-0.328-8.131-6.657V14.606h-5.183
		v-1.801h5.183v-8.73h2.074v8.73h6.111V14.606z"/>
	<path d="M544.369,1.894v16.915h0.109c1.418-4.202,5.674-6.657,10.039-6.657c9.876,0,9.984,7.912,9.984,11.349v17.351h-2.073V23.118
		c0-2.892-0.327-9.167-7.966-9.167c-6.274,0-10.094,4.856-10.094,11.731v15.168h-2.073V1.894H544.369z"/>
	<path d="M295.361,87.965c0.327,5.184,4.201,8.186,9.275,8.186c3.655,0,8.894-1.092,8.894-5.947c0-4.748-4.801-5.457-9.603-6.439
		c-4.856-0.981-9.658-2.236-9.658-7.966c0-5.565,5.401-7.202,10.149-7.202c5.947,0,10.367,2.564,10.367,8.948h-2.074
		c-0.054-5.074-3.602-7.147-8.293-7.147c-3.819,0-8.075,1.418-8.075,5.401c0,4.475,4.801,5.184,9.33,6.166
		c5.565,1.036,9.931,2.347,9.931,8.239c0,6.056-6.058,7.747-10.968,7.747c-6.384,0-11.186-3.437-11.35-9.985H295.361z"/>
	<path d="M324.334,75.689h0.109c0.872-2.783,4.036-7.094,10.202-7.094c8.621,0,12.604,6.82,12.604,14.732
		c0,8.512-4.038,14.622-12.604,14.622c-4.637,0-8.565-1.964-10.202-6.493h-0.109v15.879h-2.074V69.25h2.074V75.689z M345.176,83.328
		c0-6.385-3-12.932-10.53-12.932c-7.475,0-10.258,6.274-10.258,12.932c0,6.656,2.347,12.822,10.258,12.822
		C341.957,96.15,345.176,90.258,345.176,83.328z"/>
	<path d="M355.326,75.471h0.163c1.092-3.656,5.674-6.602,10.749-6.384v2.073c-2.183-0.272-5.238,0.273-7.749,2.729
		c-2.073,2.128-2.945,3.874-3.163,8.075v15.332h-2.075V69.25h2.075V75.471z"/>
	<path d="M370.385,83.546c-0.109,6.603,3.383,12.604,10.313,12.604c5.293,0,9.058-3.165,10.04-8.349h2.073
		c-1.092,6.548-5.457,10.148-12.113,10.148c-8.185,0-12.495-6.438-12.386-14.187c-0.109-7.693,3.929-15.168,12.386-15.168
		c8.784,0,12.713,6.93,12.332,14.95H370.385z M390.954,81.746c-0.108-5.894-3.818-11.35-10.257-11.35
		c-6.221,0-9.876,5.783-10.313,11.35H390.954z"/>
	<path d="M419.71,92.112c0,1.637,0,3.383,1.854,3.383c0.382,0,0.873-0.055,1.528-0.163v1.746c-0.601,0.108-1.146,0.218-1.691,0.218
		c-3.274,0-3.766-1.801-3.766-4.093V91.73h-0.109c-1.309,3.328-5.073,6.22-10.421,6.22c-5.293,0-9.385-2.019-9.385-7.911
		c0-6.548,5.675-7.912,10.313-8.293c9.276-0.656,9.657-1.256,9.657-5.839c0-1.255-1.419-5.511-7.803-5.511
		c-5.02,0-8.348,2.619-8.621,7.475h-2.072c0.272-6.165,4.092-9.275,10.693-9.275c4.911,0,9.822,1.527,9.822,7.312V92.112z
		 M417.636,81.363c-1.637,1.855-6.11,1.637-10.148,2.183c-4.91,0.546-7.693,2.292-7.693,6.493c0,3.383,2.456,6.111,7.366,6.111
		c9.439,0,10.476-8.076,10.476-9.549V81.363z"/>
	<path d="M449.119,91.294h-0.108c-2.292,4.419-5.73,6.656-10.75,6.656c-8.456,0-12.112-6.874-12.112-14.622
		c0-8.294,4.037-14.732,12.494-14.732c4.584,0,8.895,2.51,10.368,6.93h0.108V58.338h2.073v38.958h-2.073V91.294z M449.064,83.328
		c0-6.549-3.219-12.932-10.422-12.932c-7.42,0-10.421,6.165-10.421,12.932c0,6.602,3.273,12.822,10.477,12.822
		C445.79,96.15,449.064,89.766,449.064,83.328z"/>
	<path d="M459.432,63.957v-5.619h2.073v5.619H459.432z M459.432,97.296V69.25h2.073v28.046H459.432z"/>
	<path d="M469.253,69.25h2.073v6.002h0.109c1.419-4.201,5.674-6.656,10.04-6.656c9.876,0,9.984,7.912,9.984,11.35v17.351h-2.074
		V79.563c0-2.892-0.326-9.166-7.966-9.166c-6.274,0-10.094,4.855-10.094,11.73v15.169h-2.073V69.25z"/>
	<path d="M521.905,69.25v26.572c0,2.183,0,12.55-12.113,12.168c-6.002,0-10.64-2.237-10.966-8.73h2.073
		c0.437,4.965,4.364,6.93,8.948,6.93c9.82,0,9.984-8.021,9.984-9.876v-6.438h-0.108c-1.965,4.146-5.402,6.384-10.149,6.384
		c-8.238,0-12.112-6.056-12.112-13.858c0-7.42,4.201-13.805,12.112-13.805c4.365,0,8.621,2.292,10.149,6.493h0.108V69.25H521.905z
		 M499.535,82.4c0,6.602,3.437,12.059,10.039,12.059c6.82,0,10.203-5.729,10.203-12.059c0-6.275-3.328-12.004-10.203-12.004
		C502.809,70.396,499.535,76.453,499.535,82.4z"/>
</g>
</svg>
