<?xml version="1.0" encoding="UTF-8" standalone="no"?>
<svg
   xmlns:svg="http://www.w3.org/2000/svg"
   xmlns="http://www.w3.org/2000/svg"
   version="1.1"
   width="182.1874"
   height="59.245291"
   id="svg2">
  <g transform="scale(10)">
    <g transform="translate(-49.7621,-328.64334)" style="fill:#cd2027;fill-opacity:1;fill-rule:nonzero;stroke:none;stroke-width:0;stroke-linecap:butt;stroke-linejoin:miter;marker:none;marker-start:none;marker-mid:none;marker-end:none;stroke-miterlimit:4;stroke-dashoffset:0;stroke-opacity:1;visibility:visible;display:inline;overflow:visible;enable-background:accumulate" >
      <path d="M 50.316917,329.08234 L 54.695695,329.08234 L 54.695695,330.07649 L 54.62386,330.07649 L 54.626552,329.43812 L 52.902455,329.43812 L 52.902455,333.95083 L 53.404999,333.95083 L 53.404999,334.09684 L 51.686843,334.09684 L 51.6874,333.95083 L 52.14864,333.95083 L 52.14864,329.43812 L 50.396529,329.43812 L 50.396529,330.07649 L 50.316917,330.07649 L 50.316917,329.08234 z" />
      <path d="M 54.909234,329.07819 L 56.630785,329.07819 L 56.630785,329.22081 L 56.138428,329.22081 L 56.138428,333.95422 L 56.630785,333.95422 L 56.630785,334.09684 L 54.909265,334.09684 L 54.912642,333.95422 L 55.408382,333.95422 L 55.408382,329.22081 L 54.909234,329.22081 L 54.909234,329.07819 z" />
      <path d="M 58.147068,329.07043 L 58.482909,329.07043 L 60.094867,332.93742 L 61.685227,329.07043 L 62.013464,329.07043 L 62.910018,333.9508 L 63.364136,333.9508 L 63.364136,334.10193 L 61.575954,334.10193 L 61.576867,333.9508 L 62.042674,333.9508 L 61.477939,330.83366 L 60.059368,334.10193 L 59.732467,334.10193 L 58.319736,330.83366 L 57.729673,333.9508 L 58.163835,333.9508 L 58.153822,334.10193 L 56.844947,334.10193 L 56.848276,333.9508 L 57.249853,333.9508 L 58.147068,329.07043 z" />
      <path d="M 63.508836,329.08131 L 67.298258,329.08131 L 67.307217,330.07185 L 67.241015,330.06936 L 67.208885,329.46403 L 64.727345,329.43493 L 64.727345,331.41292 L 66.835565,331.41292 L 66.8927,330.95008 L 66.984996,330.95008 C 66.95649,331.36617 66.957418,331.78225 66.984996,332.19834 L 66.8927,332.19834 L 66.835565,331.72148 L 64.727345,331.72148 L 64.727345,333.76675 L 67.295481,333.76792 L 67.306425,333.09304 L 67.382378,333.09422 L 67.382378,334.0992 L 63.508836,334.0992 L 63.508836,333.95584 L 64.010575,333.95236 L 64.010575,329.23428 L 63.508836,329.22018 L 63.508836,329.08131 z" />
    </g>
  </g>
</svg>
